<?xml version="1.0" encoding="UTF-8"?>
<svg id="Layer_1" data-name="Layer 1" xmlns="http://www.w3.org/2000/svg" xmlns:xlink="http://www.w3.org/1999/xlink" viewBox="0 0 99.032 100.396">
  <defs>
    <style>
      .cls-1 {
        fill: url(#linear-gradient-2);
      }

      .cls-2 {
        fill: #404041;
      }

      .cls-3 {
        fill: url(#linear-gradient-3);
      }

      .cls-4 {
        fill: url(#linear-gradient);
      }

      .cls-5 {
        fill: url(#linear-gradient-4);
      }
    </style>
    <linearGradient id="linear-gradient" x1="29.093" y1="70.907" x2="70.907" y2="29.094" gradientUnits="userSpaceOnUse">
      <stop offset="0" stop-color="#404041"/>
      <stop offset="1" stop-color="#231f20"/>
    </linearGradient>
    <linearGradient id="linear-gradient-2" x1="18.252" y1="66.624" x2="36.844" y2="98.826" gradientUnits="userSpaceOnUse">
      <stop offset="0" stop-color="#b45328"/>
      <stop offset=".19" stop-color="#f37920"/>
      <stop offset="1" stop-color="#e1701e"/>
    </linearGradient>
    <linearGradient id="linear-gradient-3" x1="61.995" y1="83.244" x2="99.032" y2="83.244" gradientUnits="userSpaceOnUse">
      <stop offset="0" stop-color="#404041"/>
      <stop offset="1" stop-color="#323031"/>
    </linearGradient>
    <linearGradient id="linear-gradient-4" x1="17.229" y1="77.037" x2="82.607" y2="11.66" gradientUnits="userSpaceOnUse">
      <stop offset="0" stop-color="#f2703a"/>
      <stop offset=".524" stop-color="#fcc27b"/>
      <stop offset="1" stop-color="#fcb813"/>
    </linearGradient>
  </defs>
  <path class="cls-4" d="m63.821,35.211v11.004h-6.602v6.602h6.602v17.606c3.648,0,6.602-2.954,6.602-6.602V28.609c-3.648,0-6.602,2.954-6.602,6.602Zm-17.606-6.602h-7.702c-1.155,0-2.267.198-3.301.567-2.811.99-5.045,3.224-6.035,6.035-.369,1.034-.567,2.146-.567,3.301v31.91c3.648,0,6.602-2.954,6.602-6.602v-25.308c0-1.821,1.48-3.301,3.301-3.301h5.502c1.216,0,2.201.985,2.201,2.201v8.803h-6.602v6.602h13.204v-17.606c0-3.648-2.954-6.602-6.602-6.602Zm0,41.813c3.648,0,6.602-2.954,6.602-6.602v-6.602h-6.602v13.204Z"/>
  <path class="cls-1" d="m5.24,77.162H0v12.026h3.058v-3.384h2.182c3.075,0,4.845-1.632,4.845-4.45,0-2.68-1.769-4.192-4.845-4.192Zm-.155,6.236h-2.027v-3.831h2.027c1.34,0,2.113.636,2.113,1.89,0,1.271-.773,1.941-2.113,1.941Zm9.603-6.236l-5.188,12.026h3.144l.876-2.216h5.257l.859,2.216h3.264l-5.068-12.026h-3.144Zm-.275,7.49l1.752-4.449,1.718,4.449h-3.47Zm19.978-3.298c0-2.68-1.821-4.192-4.999-4.192h-5.377v12.026h3.058v-3.384h2.405l1.787,3.384h3.47l-2.525-3.969c1.409-.704,2.182-2.027,2.182-3.865Zm-4.999,2.044h-2.319v-3.831h2.319c1.323,0,2.096.636,2.096,1.89,0,1.271-.773,1.941-2.096,1.941Zm5.977-3.779h3.591v9.569h3.058v-9.569h3.625v-2.474h-10.274v2.474Zm14.619.756c0-.584.532-.876,1.323-.876.979,0,2.577.515,3.848,1.254l1.151-2.388c-1.237-.807-3.006-1.34-4.741-1.34-2.886,0-4.793,1.408-4.793,3.625,0,4.26,6.356,2.989,6.356,5.119,0,.687-.601,1.048-1.563,1.048-1.254,0-3.109-.721-4.347-1.803l-1.185,2.353c1.426,1.168,3.487,1.924,5.497,1.924,2.68,0,4.81-1.271,4.81-3.676,0-4.347-6.356-3.161-6.356-5.24Z"/>
  <path class="cls-3" d="m70.035,82.11h-4.982v-4.948h-3.058v12.026h3.058v-4.673h4.982v4.673h3.058v-12.026h-3.058v4.948Zm13.244,2.027c0,1.632-.979,2.628-2.422,2.628-1.461,0-2.508-.996-2.508-2.628v-6.975h-3.058v6.975c0,3.178,2.165,5.188,5.549,5.188,3.367,0,5.48-2.01,5.48-5.188v-6.975h-3.041v6.975Zm13.278-1.322c1.271-.361,2.062-1.375,2.062-2.646,0-1.838-1.718-3.006-4.415-3.006h-5.686v12.026h5.893c2.834,0,4.621-1.288,4.621-3.333,0-1.564-.962-2.749-2.474-3.041Zm-4.999-3.316h2.474c.893,0,1.46.447,1.46,1.22s-.567,1.254-1.46,1.254h-2.474v-2.474Zm2.474,7.336h-2.474v-2.663h2.474c1.134,0,1.838.498,1.838,1.306,0,.859-.705,1.357-1.838,1.357Z"/>
  <g>
    <path class="cls-2" d="m4.403,98.987l1.218-4.366h.849l-1.218,4.366h-.849Z"/>
    <path class="cls-2" d="m9.076,98.987h-.824l.504-1.808c.072-.258.079-.447.022-.566-.057-.119-.165-.178-.325-.178-.082,0-.171.016-.266.049-.095.033-.189.079-.281.138-.093.06-.181.13-.265.212-.084.082-.155.172-.211.271l-.525,1.881h-.824l.899-3.222h.744l-.166.596c.176-.205.393-.365.65-.48.257-.115.528-.172.81-.172.201,0,.355.037.461.111.106.074.178.17.214.289s.047.254.031.406c-.016.152-.045.305-.089.461l-.561,2.011Z"/>
    <path class="cls-2" d="m11.112,99.049c-.221,0-.414-.043-.579-.129-.165-.086-.293-.205-.386-.357-.093-.152-.149-.329-.168-.532-.019-.203.004-.421.069-.655s.162-.451.29-.652c.128-.201.276-.377.446-.529.169-.152.354-.271.555-.357.2-.086.405-.129.614-.129.238,0,.436.057.594.172.159.115.265.264.321.449l.511-1.832h.824l-.988,3.542c-.024.086-.027.148-.008.184.018.037.062.057.13.061l-.196.701c-.152.029-.272.043-.362.043-.148,0-.258-.037-.332-.111-.074-.074-.1-.17-.079-.289l.038-.203c-.176.205-.38.36-.612.464s-.459.157-.68.157Zm.411-.701c.078,0,.161-.013.251-.04.089-.027.176-.065.259-.114.083-.049.162-.107.236-.172.074-.066.136-.137.186-.215l.214-.769c-.008-.09-.031-.173-.069-.249-.038-.076-.088-.141-.148-.197-.06-.055-.128-.099-.203-.132-.075-.033-.153-.049-.235-.049-.123,0-.244.027-.364.08-.119.053-.229.126-.328.218-.099.092-.186.198-.26.317-.074.119-.129.242-.164.369-.038.135-.05.26-.037.375.013.115.046.215.1.301.054.086.128.154.223.203.095.049.208.074.339.074Z"/>
    <path class="cls-2" d="m14.728,99.049c-.332,0-.554-.107-.667-.32-.113-.213-.111-.529.006-.947l.563-2.017h.824l-.513,1.839c-.138.496-.029.744.327.744.16,0,.328-.048.505-.145.176-.096.339-.243.488-.44l.558-1.998h.824l-.635,2.275c-.024.086-.026.148-.005.184.02.037.065.057.134.061l-.196.701c-.087.016-.158.027-.215.031-.057.004-.107.006-.152.006-.148,0-.258-.034-.331-.101s-.102-.161-.085-.28l.054-.258c-.205.221-.436.387-.692.498-.256.111-.52.166-.79.166Z"/>
    <path class="cls-2" d="m18.761,99.049c-.271,0-.523-.043-.757-.129-.234-.086-.421-.209-.561-.369l.452-.516c.158.139.32.245.487.317.166.072.342.108.526.108.164,0,.302-.031.413-.092s.183-.15.215-.264,0-.199-.096-.252c-.096-.053-.259-.115-.49-.184-.193-.057-.356-.113-.489-.166-.133-.053-.235-.114-.306-.181s-.115-.145-.132-.234c-.016-.088-.007-.194.027-.317.046-.164.119-.311.219-.443.1-.131.22-.243.361-.335.14-.092.295-.163.462-.212.167-.049.341-.074.522-.074.242,0,.459.035.65.105.192.07.354.182.487.338l-.471.498c-.13-.123-.263-.213-.401-.271-.138-.057-.283-.086-.434-.086-.139,0-.264.029-.374.086-.11.058-.183.15-.219.277-.016.058-.018.105-.006.142s.039.07.08.098c.041.029.098.056.171.083.072.027.164.054.275.083.205.058.379.115.521.172s.253.123.333.197c.08.074.13.159.15.255.02.096.011.212-.026.347-.088.316-.274.565-.559.747-.285.182-.628.274-1.03.274Z"/>
    <path class="cls-2" d="m22.594,98.821c-.125.049-.273.098-.447.148-.174.049-.349.074-.525.074-.115,0-.218-.014-.311-.043-.092-.029-.168-.075-.226-.138-.058-.063-.096-.145-.113-.246-.017-.1-.006-.222.034-.366l.516-1.851h-.424l.177-.633h.424l.292-1.045h.824l-.292,1.045h.677l-.177.633h-.677l-.439,1.574c-.032.115-.025.196.021.243s.112.071.199.071.174-.014.264-.043c.09-.029.163-.053.217-.074l-.016.652Z"/>
    <path class="cls-2" d="m25.596,96.479c-.251.004-.488.052-.71.144-.223.092-.403.231-.54.415l-.544,1.949h-.824l.899-3.222h.756l-.192.689c.088-.111.184-.21.286-.298.102-.088.208-.165.316-.23.108-.066.214-.116.316-.151s.196-.052.282-.052h.101c.022,0,.043.002.063.006l-.209.75Z"/>
    <path class="cls-2" d="m26.382,95.317l.228-.818h.824l-.228.818h-.824Zm-1.024,3.671l.899-3.222h.824l-.899,3.222h-.824Z"/>
    <path class="cls-2" d="m27.788,99.049c-.156,0-.294-.026-.415-.077-.121-.051-.218-.123-.29-.215s-.119-.2-.141-.323c-.021-.123-.011-.258.03-.406.042-.152.115-.292.219-.421.104-.129.228-.239.375-.329.146-.09.31-.161.493-.212.182-.051.374-.077.575-.077.143,0,.28.012.411.037.13.025.243.06.337.105l.051-.184c.059-.213.045-.377-.044-.492-.089-.115-.252-.172-.49-.172-.172,0-.349.031-.53.092s-.374.152-.58.271l-.106-.523c.491-.275.976-.412,1.455-.412.463,0,.791.114.984.341.193.227.229.556.109.987l-.28,1.002c-.024.086-.026.148-.005.184.02.037.065.057.133.061l-.196.701c-.147.029-.272.043-.375.043-.156,0-.266-.035-.33-.105-.065-.07-.091-.162-.08-.277l.031-.178c-.196.189-.41.332-.643.43s-.465.148-.699.148Zm.402-.603c.139,0,.278-.025.417-.074.139-.049.254-.115.347-.197.11-.07.176-.148.2-.234l.103-.369c-.088-.037-.186-.067-.295-.089-.109-.023-.216-.034-.323-.034-.213,0-.401.048-.563.144-.162.096-.264.218-.305.366-.039.139-.018.255.063.347.081.092.199.138.355.138Z"/>
    <path class="cls-2" d="m31.701,94.499h.824l-.964,3.456c-.033.119-.03.211.009.277.039.066.112.098.218.098.049,0,.106-.008.17-.025.064-.016.126-.037.186-.061l-.064.627c-.126.053-.266.094-.422.123s-.293.043-.412.043c-.258,0-.439-.068-.542-.206-.103-.137-.119-.333-.048-.587l1.045-3.745Z"/>
    <path class="cls-2" d="m33.769,98.987l1.218-4.366h1.851c.201,0,.375.042.521.126.147.084.262.195.347.332.085.137.137.293.159.467.021.174.007.35-.042.526-.051.184-.134.364-.249.538s-.25.329-.406.464c-.157.135-.33.244-.521.326-.191.082-.387.123-.588.123h-1.033l-.408,1.463h-.849Zm1.465-2.207h.984c.156,0,.304-.063.444-.191.14-.127.24-.299.301-.516.031-.111.042-.21.034-.298s-.03-.163-.067-.224-.086-.108-.149-.138-.132-.046-.205-.046h-.947l-.395,1.414Z"/>
    <path class="cls-2" d="m38.351,99.049c-.156,0-.294-.026-.415-.077-.121-.051-.218-.123-.29-.215s-.119-.2-.141-.323c-.021-.123-.011-.258.03-.406.042-.152.115-.292.219-.421.104-.129.228-.239.375-.329.146-.09.31-.161.493-.212.182-.051.374-.077.575-.077.143,0,.28.012.411.037.13.025.243.06.337.105l.051-.184c.059-.213.045-.377-.044-.492-.089-.115-.252-.172-.49-.172-.172,0-.349.031-.53.092s-.374.152-.58.271l-.106-.523c.491-.275.976-.412,1.455-.412.463,0,.791.114.984.341.193.227.229.556.109.987l-.28,1.002c-.024.086-.026.148-.005.184.02.037.065.057.133.061l-.196.701c-.147.029-.272.043-.375.043-.156,0-.266-.035-.33-.105-.065-.07-.091-.162-.08-.277l.031-.178c-.196.189-.41.332-.643.43s-.465.148-.699.148Zm.402-.603c.139,0,.278-.025.417-.074.139-.049.254-.115.347-.197.11-.07.176-.148.2-.234l.103-.369c-.088-.037-.186-.067-.295-.089-.109-.023-.216-.034-.323-.034-.213,0-.401.048-.563.144-.162.096-.264.218-.305.366-.039.139-.018.255.063.347.081.092.199.138.355.138Z"/>
    <path class="cls-2" d="m43.637,96.479c-.251.004-.488.052-.71.144-.223.092-.403.231-.54.415l-.544,1.949h-.824l.899-3.222h.756l-.192.689c.088-.111.184-.21.286-.298.102-.088.208-.165.316-.23.108-.066.214-.116.316-.151s.196-.052.282-.052h.101c.022,0,.043.002.063.006l-.209.75Z"/>
    <path class="cls-2" d="m45.375,98.821c-.125.049-.273.098-.447.148-.174.049-.349.074-.525.074-.115,0-.218-.014-.311-.043-.092-.029-.168-.075-.226-.138-.058-.063-.096-.145-.113-.246-.017-.1-.006-.222.034-.366l.516-1.851h-.424l.177-.633h.424l.292-1.045h.824l-.292,1.045h.677l-.177.633h-.677l-.439,1.574c-.032.115-.025.196.021.243s.112.071.199.071.174-.014.264-.043c.09-.029.163-.053.217-.074l-.016.652Z"/>
    <path class="cls-2" d="m46.959,99.049c-.271,0-.523-.043-.757-.129-.234-.086-.421-.209-.561-.369l.452-.516c.158.139.32.245.486.317s.342.108.526.108c.164,0,.302-.031.413-.092.111-.061.183-.15.215-.264s0-.199-.096-.252c-.096-.053-.259-.115-.49-.184-.193-.057-.356-.113-.489-.166-.133-.053-.235-.114-.306-.181-.071-.068-.115-.145-.132-.234-.016-.088-.007-.194.027-.317.046-.164.119-.311.219-.443.1-.131.22-.243.361-.335.141-.092.295-.163.462-.212.167-.049.341-.074.522-.074.242,0,.459.035.65.105.192.07.354.182.487.338l-.471.498c-.13-.123-.263-.213-.401-.271-.138-.057-.283-.086-.434-.086-.139,0-.264.029-.374.086-.11.058-.183.15-.219.277-.016.058-.018.105-.006.142.012.037.039.07.08.098.041.029.098.056.17.083.073.027.164.054.275.083.205.058.379.115.521.172s.253.123.333.197c.08.074.13.159.15.255.02.096.012.212-.026.347-.088.316-.275.565-.559.747-.285.182-.628.274-1.029.274Z"/>
    <path class="cls-2" d="m50.487,98.987l.676-2.423h-.424l.175-.627h.424l.055-.197c.112-.402.297-.719.555-.953.258-.234.553-.351.885-.351.262,0,.509.064.74.191l-.339.621c-.052-.033-.117-.061-.195-.083-.078-.022-.152-.034-.221-.034-.287,0-.484.193-.592.578l-.063.227h.787l-.175.627h-.787l-.676,2.423h-.824Z"/>
    <path class="cls-2" d="m55.184,96.479c-.251.004-.488.052-.71.144-.223.092-.403.231-.54.415l-.544,1.949h-.824l.899-3.222h.756l-.192.689c.088-.111.184-.21.286-.298.102-.088.208-.165.316-.23.108-.066.214-.116.316-.151s.196-.052.282-.052h.101c.022,0,.043.002.063.006l-.209.75Z"/>
    <path class="cls-2" d="m56.256,99.049c-.262,0-.485-.045-.669-.135-.184-.09-.327-.212-.43-.366-.103-.154-.165-.331-.187-.532-.022-.201-.002-.412.06-.633.063-.225.161-.439.295-.64.134-.201.295-.378.483-.532.188-.154.4-.276.634-.366.234-.09.482-.135.745-.135s.484.045.666.135c.182.09.324.212.427.366.103.154.165.331.187.532.022.201.001.414-.062.64-.062.221-.16.433-.294.633-.134.201-.294.378-.48.532s-.397.276-.631.366-.483.135-.745.135Zm-.377-1.666c-.04.143-.055.274-.044.39s.042.218.093.304c.052.086.122.153.212.2.089.047.193.071.312.071s.236-.024.352-.071.223-.114.323-.2c.1-.086.188-.188.264-.307.076-.119.134-.25.174-.393.039-.139.053-.268.044-.387-.01-.119-.041-.221-.092-.307-.052-.086-.123-.153-.212-.2s-.193-.071-.312-.071-.237.025-.353.074c-.116.049-.224.117-.324.203s-.188.189-.264.307c-.076.119-.134.248-.173.387Z"/>
    <path class="cls-2" d="m63.517,98.987h-.824l.504-1.808c.072-.258.081-.447.026-.566s-.16-.178-.316-.178c-.164,0-.335.063-.513.188-.179.125-.326.288-.444.489l-.523,1.875h-.824l.504-1.808c.072-.258.081-.447.026-.566-.055-.119-.16-.178-.316-.178-.16,0-.33.061-.51.184s-.329.285-.446.486l-.525,1.881h-.824l.899-3.222h.744l-.166.596c.177-.209.385-.37.623-.483.238-.113.491-.169.757-.169.271,0,.461.066.572.197.111.131.16.293.147.486.193-.221.406-.391.64-.507.233-.117.479-.175.738-.175.197,0,.348.037.455.111.106.074.178.17.214.289.037.119.047.254.031.406-.016.152-.045.305-.089.461l-.561,2.011Z"/>
    <path class="cls-2" d="m68.061,94.622h.75l.442,4.366h-.873l-.102-1.088h-1.525l-.703,1.088h-.873l2.884-4.366Zm.23,2.681l-.124-1.715-1.106,1.715h1.23Z"/>
    <path class="cls-2" d="m72.647,98.987h-.824l.504-1.808c.072-.258.079-.447.022-.566s-.165-.178-.325-.178c-.082,0-.17.016-.266.049-.095.033-.189.079-.281.138-.092.06-.181.13-.265.212-.084.082-.155.172-.211.271l-.525,1.881h-.824l.899-3.222h.744l-.166.596c.176-.205.393-.365.65-.48.257-.115.528-.172.811-.172.201,0,.354.037.461.111.106.074.178.17.214.289.036.119.047.254.031.406-.016.152-.045.305-.089.461l-.561,2.011Z"/>
    <path class="cls-2" d="m73.186,99.615c.064.02.127.036.19.046s.117.015.162.015c.053,0,.105-.01.156-.031.051-.021.102-.056.153-.108s.108-.122.17-.212c.062-.09.132-.203.211-.338l-.374-3.222h.848l.173,2.509,1.475-2.509h.775l-2.43,3.861c-.141.225-.326.41-.554.554-.229.143-.482.215-.761.215-.066,0-.131-.005-.195-.015s-.131-.028-.198-.052l.199-.713Z"/>
    <path class="cls-2" d="m81.571,95.765h.781l-2.246,3.222h-.676l-.159-1.414-.942,1.414h-.677l-.441-3.222h.775l.276,2.447.685-1.045-.176-1.396h.664l.062.99.621-.99h.664l-.949,1.396.096,1.045,1.642-2.447Z"/>
    <path class="cls-2" d="m84.828,98.987h-.824l.504-1.808c.071-.254.076-.442.015-.563-.061-.121-.177-.181-.349-.181-.074,0-.156.016-.247.049-.091.033-.182.079-.272.138-.09.06-.178.13-.262.212-.084.082-.155.172-.211.271l-.525,1.881h-.824l1.252-4.489h.824l-.52,1.863c.177-.209.383-.37.617-.483.234-.113.474-.169.72-.169.209,0,.369.036.48.108.111.072.187.167.228.286.041.119.054.254.04.406-.014.152-.043.307-.087.467l-.561,2.011Z"/>
    <path class="cls-2" d="m87.024,99.049c-.258,0-.48-.044-.664-.132-.184-.088-.329-.208-.434-.36-.105-.152-.17-.328-.194-.529-.024-.201-.005-.412.057-.633.064-.23.163-.446.298-.649.134-.203.297-.381.487-.535s.404-.276.64-.366c.236-.09.486-.135.748-.135s.485.045.666.135c.182.09.324.211.428.363.103.152.165.328.184.529.02.201,0,.41-.061.627-.015.053-.03.105-.046.154-.016.049-.032.09-.05.123h-2.49c-.023.127-.024.24-.002.338.022.098.062.182.12.252.058.07.132.123.22.16.088.037.185.055.292.055.164,0,.33-.04.498-.12.168-.08.297-.185.386-.317l.652.197c-.188.246-.433.448-.738.606-.304.158-.637.237-.998.237Zm1.378-1.943c.047-.242.012-.436-.105-.581-.117-.145-.289-.218-.514-.218-.111,0-.22.019-.327.058-.107.039-.207.093-.301.163-.093.07-.177.154-.252.252-.075.098-.133.207-.174.326h1.672Z"/>
    <path class="cls-2" d="m91.849,96.479c-.251.004-.488.052-.71.144-.223.092-.403.231-.54.415l-.544,1.949h-.824l.899-3.222h.756l-.192.689c.088-.111.184-.21.286-.298.102-.088.208-.165.316-.23.108-.066.214-.116.316-.151s.196-.052.282-.052h.101c.022,0,.043.002.063.006l-.209.75Z"/>
    <path class="cls-2" d="m92.927,99.049c-.258,0-.48-.044-.664-.132-.184-.088-.329-.208-.434-.36-.105-.152-.17-.328-.194-.529-.024-.201-.005-.412.057-.633.064-.23.163-.446.298-.649.134-.203.297-.381.487-.535s.404-.276.64-.366c.236-.09.486-.135.748-.135s.485.045.666.135c.182.09.324.211.428.363.103.152.165.328.184.529.02.201,0,.41-.061.627-.015.053-.03.105-.046.154-.016.049-.032.09-.05.123h-2.49c-.023.127-.024.24-.002.338.022.098.062.182.12.252.058.07.132.123.22.16.088.037.185.055.292.055.164,0,.33-.04.498-.12.168-.08.297-.185.386-.317l.652.197c-.188.246-.433.448-.738.606-.304.158-.637.237-.998.237Zm1.378-1.943c.047-.242.012-.436-.105-.581-.117-.145-.289-.218-.514-.218-.111,0-.22.019-.327.058-.107.039-.207.093-.301.163-.093.07-.177.154-.252.252-.075.098-.133.207-.174.326h1.672Z"/>
  </g>
  <path class="cls-5" d="m89.12,37.954c-.846-2.465-1.66-5.765-3.311-8.261l4.961-9.87-12.366-10.757-9.107,4.146c-2.465-1.65-4.961-2.496-8.22-3.3l-3.3-9.912h-16.523l-3.3,9.912c-2.465.804-5.766,1.65-8.261,3.3l-9.066-4.146-11.562,11.561,4.951,9.911c-1.65,2.455-2.455,4.951-3.3,8.261l-10.716,2.455v16.522l9.911,3.3c.805,2.455,1.65,5.755,3.3,8.22l-.387.85h-1.821c-.152,0-.275.123-.275.275s.123.275.275.275h11.004c.152,0,.275-.123.275-.275s-.123-.275-.275-.275h-.43c-4.268-5.77-6.798-12.904-6.798-20.632,0-19.185,15.552-34.737,34.737-34.737s34.737,15.552,34.737,34.737c0,7.728-2.53,14.862-6.798,20.632h-.43c-.152,0-.275.123-.275.275s.123.275.275.275h11.004c.152,0,.275-.123.275-.275s-.123-.275-.275-.275h-1.793l-.426-.85c1.651-2.465,2.465-4.961,3.311-8.22l9.911-3.3v-16.522l-9.911-3.3Z"/>
</svg>